<svg width="48" height="48" viewBox="0 0 48 48" fill="none" xmlns="http://www.w3.org/2000/svg">

  <!-- GREEN BACKGROUND CIRCLE -->
  <circle cx="24" cy="24" r="24" fill="#25D366"/>

  <!-- WHATSAPP PHONE ICON — white -->
  <path d="M24 10C16.268 10 10 16.268 10 24c0 2.43.638 4.71 1.754 6.688L10 38l7.542-1.726A13.934 13.934 0 0024 38c7.732 0 14-6.268 14-14S31.732 10 24 10z" fill="white"/>
  <path d="M24 12.5c-6.351 0-11.5 5.149-11.5 11.5 0 2.116.574 4.097 1.576 5.794L12.5 35.5l5.832-1.528A11.455 11.455 0 0024 35.5c6.351 0 11.5-5.149 11.5-11.5S30.351 12.5 24 12.5z" fill="#25D366"/>
  <path d="M19.773 17.5c-.4-.011-.843.144-1.18.5-.337.356-1.283 1.254-1.283 3.058 0 1.804 1.314 3.547 1.496 3.793.183.246 2.55 4.054 6.27 5.527 3.72 1.474 3.72.983 4.39.921.67-.061 2.16-.883 2.465-1.736.305-.853.305-1.583.213-1.736-.091-.153-.335-.244-.701-.427-.366-.183-2.16-1.066-2.496-1.188-.335-.122-.58-.183-.824.183-.244.366-.944 1.188-1.157 1.432-.213.244-.427.274-.793.091-.366-.183-1.545-.57-2.944-1.816-1.088-.97-1.823-2.168-2.036-2.534-.213-.366-.023-.564.16-.747.164-.163.366-.427.549-.64.183-.213.244-.366.366-.61.122-.244.061-.458-.03-.64-.092-.184-.825-1.99-1.13-2.722-.296-.713-.597-.622-.824-.633l-.71-.016z" fill="white"/>

</svg>
